<?xml version="1.0" standalone="no"?>
<!DOCTYPE svg PUBLIC "-//W3C//DTD SVG 20010904//EN"
 "http://www.w3.org/TR/2001/REC-SVG-20010904/DTD/svg10.dtd">
<svg version="1.0" xmlns="http://www.w3.org/2000/svg"
 width="480.000000pt" height="480.000000pt" viewBox="0 0 480.000000 480.000000"
 preserveAspectRatio="xMidYMid meet">

<g transform="translate(0.000000,480.000000) scale(0.100000,-0.100000)"
fill="#000000" stroke="none">
<path d="M2007 4306 c-96 -232 -143 -420 -121 -488 4 -15 -5 -23 -49 -43 -130
-57 -248 -147 -303 -229 -19 -29 -52 -96 -74 -150 -69 -168 -120 -264 -143
-272 -12 -4 -38 -8 -57 -9 -19 -1 -46 -5 -60 -9 -32 -10 -100 -56 -100 -68 0
-5 -13 -23 -28 -39 -70 -74 -141 -278 -128 -364 3 -16 8 -50 11 -74 10 -66 37
-113 110 -185 115 -115 152 -130 307 -127 67 1 98 -2 104 -10 8 -14 17 -97 18
-174 l1 -50 -35 1 c-19 1 -61 3 -92 5 -126 6 -222 -83 -249 -232 -16 -89 -5
-113 63 -147 76 -38 225 -50 274 -22 l32 18 6 -37 c12 -72 8 -88 -26 -108 -50
-30 -120 -127 -144 -202 -40 -122 -22 -225 58 -333 54 -73 145 -158 176 -164
18 -4 32 -8 32 -10 0 -2 -18 -31 -40 -65 -30 -47 -40 -72 -40 -103 0 -66 10
-86 49 -102 61 -27 133 -46 152 -41 10 3 46 -1 81 -9 76 -16 199 -18 250 -4
43 12 106 73 114 110 3 14 14 48 24 75 26 70 32 115 19 132 -9 10 -9 20 0 39
l11 26 54 -49 c30 -28 79 -62 110 -77 62 -30 70 -50 34 -82 -35 -32 -78 -106
-78 -137 0 -61 65 -121 142 -132 61 -8 213 -6 258 4 86 20 166 39 265 64 55
14 127 28 160 32 90 10 194 86 235 170 26 54 25 73 -5 128 l-26 45 35 29 c18
15 47 48 62 73 20 31 35 44 46 42 17 -3 162 40 263 79 28 11 79 38 114 62 36
23 75 48 88 55 37 21 125 112 162 166 64 97 176 359 192 453 17 94 7 209 -23
266 -27 54 -117 127 -182 148 -22 7 -46 20 -52 27 -9 12 -14 8 -31 -19 -11
-19 -42 -60 -69 -91 -27 -31 -69 -81 -94 -111 -86 -104 -205 -162 -307 -151
-29 4 -56 11 -59 16 -3 4 9 30 27 56 89 128 17 348 -119 366 -26 4 -62 2 -79
-3 -18 -5 -33 -8 -33 -6 0 3 -26 -9 -57 -26 -131 -71 -126 -69 -140 -50 -17
22 -16 31 2 31 27 0 109 47 142 82 43 44 78 137 81 213 3 56 1 63 -31 97 -38
41 -95 61 -172 60 -54 0 -98 24 -73 40 7 4 23 8 36 8 33 0 116 46 138 78 75
103 101 224 61 283 -12 18 -38 41 -57 52 -46 26 -156 48 -202 40 -47 -7 -49 3
-4 22 45 19 137 105 157 146 38 80 48 111 55 168 6 56 4 64 -21 100 -42 61
-149 104 -258 103 l-68 -1 30 34 c39 45 45 68 26 104 -21 41 -61 77 -115 102
-39 18 -57 21 -130 16 -103 -7 -215 -40 -230 -67 -11 -21 -36 -26 -59 -11 -10
7 -14 26 -12 64 2 66 -20 128 -84 226 -25 39 -45 73 -45 75 0 8 -80 86 -103
100 -12 8 -44 21 -72 29 l-50 14 -38 -91z m136 -36 c16 -19 67 -97 67 -102 0
-2 -32 -4 -71 -5 l-70 -2 7 37 c7 41 31 92 42 92 4 0 15 -9 25 -20z m106 -167
c28 -57 72 -185 66 -192 -3 -3 -22 -4 -42 -2 -47 4 -152 -16 -238 -44 -38 -13
-71 -22 -74 -20 -2 2 3 19 12 37 8 18 20 53 27 76 11 42 12 43 29 27 14 -12
40 -16 111 -16 77 -1 94 2 105 18 21 27 18 39 -12 52 -19 7 -41 8 -68 1 -22
-5 -61 -10 -87 -10 -51 0 -56 7 -39 53 8 21 16 24 77 25 45 1 73 7 83 17 22
22 29 19 50 -22z m547 -218 c36 -24 45 -63 31 -124 -11 -48 -16 -56 -42 -63
-22 -5 -32 -4 -38 7 -19 35 -112 103 -181 133 -28 13 -28 13 -9 27 49 35 201
48 239 20z m-307 -83 c99 -42 161 -91 213 -169 76 -114 112 -239 163 -556 19
-118 32 -293 34 -442 4 -280 100 -493 329 -728 24 -25 114 -88 138 -97 36 -14
112 -29 186 -36 72 -7 198 24 265 65 62 38 148 134 196 217 20 36 37 70 37 75
0 40 119 -51 149 -115 13 -25 20 -50 17 -55 -4 -5 -2 -12 3 -15 17 -11 2 -169
-25 -251 -36 -110 -135 -312 -186 -381 -53 -70 -176 -160 -317 -231 -58 -29
-109 -57 -115 -63 -5 -5 -25 -10 -43 -10 l-32 0 20 47 c37 88 54 190 36 230
-10 22 -62 53 -89 53 -10 0 -13 -22 -14 -93 -2 -150 -52 -263 -192 -431 -57
-68 -60 -75 -42 -81 12 -4 28 -1 36 6 13 10 17 10 25 -2 14 -23 11 -51 -19
-131 -22 -60 -31 -75 -42 -68 -8 5 -21 5 -32 -1 -9 -5 -39 -12 -65 -15 -26 -3
-75 -12 -108 -20 -73 -18 -150 -36 -275 -64 -103 -23 -230 -28 -271 -12 -52
21 -45 112 12 153 18 12 29 29 29 44 0 13 10 32 23 42 35 27 22 66 -23 74 -54
9 -120 46 -173 97 -59 58 -77 112 -77 231 0 79 3 90 40 167 59 118 186 244
247 244 19 0 16 47 -3 58 -37 21 -157 -35 -234 -109 -40 -39 -110 -139 -110
-158 0 -17 -13 -13 -32 8 -29 34 -173 38 -312 9 -28 -6 -63 -12 -78 -13 -37
-4 -47 -12 -41 -35 7 -26 57 -35 147 -25 39 5 115 9 168 10 54 1 101 4 104 8
17 17 20 -8 8 -65 -8 -35 -14 -95 -14 -135 0 -39 -4 -74 -9 -78 -6 -3 -37 -6
-70 -6 -49 -1 -73 5 -128 32 -135 67 -259 176 -300 265 -30 66 -34 134 -37
567 -3 342 -3 348 -25 378 -12 16 -21 38 -19 48 3 21 -18 51 -37 51 -7 0 -12
8 -11 18 1 13 -6 17 -34 15 -230 -13 -237 -11 -339 76 -92 78 -106 96 -119
151 -18 76 -15 127 12 218 28 93 78 176 144 240 l47 45 82 2 c97 1 114 12 139
89 9 28 27 69 39 91 13 22 26 56 30 75 4 19 13 45 21 57 8 12 14 27 14 32 0
13 55 105 90 149 49 64 156 137 275 187 22 10 49 26 60 35 19 18 178 65 240
72 75 8 204 -11 274 -40z m579 -176 c18 -9 38 -29 43 -44 16 -41 1 -130 -34
-200 -29 -59 -113 -152 -136 -152 -6 0 -13 12 -17 28 -3 15 -10 43 -15 62 -5
19 -9 46 -9 60 0 14 -20 75 -45 135 -25 60 -42 112 -38 116 25 24 203 20 251
-5z m-28 -509 c77 -10 127 -32 136 -60 19 -59 -7 -153 -59 -220 -32 -42 -112
-101 -126 -93 -4 3 -11 45 -15 93 -13 177 -18 229 -26 273 -10 52 -3 72 14 38
10 -19 23 -24 76 -31z m58 -505 c75 -10 100 -30 103 -87 5 -82 -21 -147 -84
-212 -43 -45 -57 -52 -57 -30 0 7 -9 31 -19 53 -26 54 -48 146 -54 227 l-5 69
27 -6 c14 -4 54 -10 89 -14z m296 -427 c44 -44 60 -114 52 -233 -3 -47 -8 -87
-11 -90 -9 -9 -76 32 -104 64 -16 17 -33 33 -39 35 -18 7 -141 152 -136 161 3
4 13 8 22 9 9 0 37 14 62 30 47 30 100 58 112 59 4 0 23 -16 42 -35z m-1918
-231 c12 4 14 -19 13 -139 l-1 -144 -126 4 c-156 5 -161 8 -144 95 16 73 40
116 88 154 45 36 80 45 122 34 19 -5 40 -7 48 -4z m34 -609 c0 -19 12 -64 26
-101 22 -53 43 -82 109 -148 126 -128 276 -206 401 -209 l69 -2 -1 -65 c0 -56
-11 -103 -44 -185 -4 -11 -14 -36 -21 -55 -22 -63 -34 -70 -117 -70 -72 0
-147 14 -166 32 -6 4 -41 8 -78 8 l-68 0 0 53 c0 43 6 63 30 99 30 46 32 78 4
78 -8 0 -14 6 -14 14 0 8 -36 49 -80 91 -58 57 -89 98 -116 151 l-37 73 12 84
c12 82 58 187 81 187 6 0 10 -16 10 -35z m670 -445 c0 -5 -4 -10 -10 -10 -5 0
-10 5 -10 10 0 6 5 10 10 10 6 0 10 -4 10 -10z"/>
<path d="M2435 3256 c-5 -7 -47 -59 -93 -115 -46 -56 -80 -106 -77 -111 4 -6
24 -8 46 -6 32 4 54 -3 124 -39 74 -39 88 -43 106 -32 35 22 19 49 -51 84 -36
18 -71 33 -77 33 -25 0 -12 17 57 74 39 32 70 62 70 66 0 13 -45 49 -70 55
-16 4 -29 1 -35 -9z"/>
<path d="M1870 3182 c-33 -27 -38 -122 -7 -157 28 -32 78 -43 100 -21 9 9 19
36 22 60 10 63 -26 136 -66 136 -15 0 -37 -8 -49 -18z"/>
<path d="M2325 2770 c-38 -16 -94 -35 -123 -41 -70 -14 -179 -14 -216 0 -24
10 -32 9 -45 -4 -15 -15 -14 -18 4 -31 29 -21 81 -33 160 -36 58 -2 76 -7 105
-29 63 -47 72 -49 162 -40 46 4 94 14 107 21 20 10 23 17 18 53 -4 31 -14 48
-39 69 -18 15 -39 28 -46 28 -9 0 -11 7 -7 20 8 25 5 25 -80 -10z m61 -58 c18
-12 33 -47 25 -60 -9 -16 -91 22 -91 42 0 22 43 34 66 18z"/>
<path d="M2495 2168 c-67 -25 -136 -80 -160 -127 -35 -70 -18 -131 63 -219 26
-28 41 -35 103 -46 45 -7 114 -10 176 -6 89 5 105 8 127 29 50 47 28 65 -61
51 -32 -5 -100 -8 -152 -7 -93 1 -95 2 -128 35 -66 66 -38 138 82 207 52 30
136 42 180 25 12 -4 29 -4 38 1 22 13 22 45 0 54 -32 12 -236 15 -268 3z"/>
<path d="M1640 1968 c-23 -9 -25 -18 -7 -41 9 -13 31 -19 87 -22 248 -14 314
-26 374 -69 18 -13 45 -55 72 -114 47 -100 49 -107 34 -97 -6 4 -23 8 -38 10
-15 3 -49 8 -77 13 -49 8 -195 7 -245 -1 -102 -17 -140 -29 -140 -46 0 -43 45
-51 152 -26 76 17 184 13 263 -9 32 -10 73 -16 92 -14 29 2 36 -2 54 -32 21
-33 47 -59 61 -60 4 0 17 14 29 31 27 38 25 44 -62 226 -93 193 -154 232 -389
249 -142 10 -237 11 -260 2z"/>
<path d="M866 3683 c-16 -3 -57 -20 -92 -38 l-64 -34 -57 26 c-83 38 -174 36
-259 -6 -55 -26 -64 -35 -79 -75 -46 -120 39 -269 195 -343 30 -14 77 -36 104
-49 52 -25 81 -30 90 -16 9 15 -67 80 -129 111 -136 66 -190 135 -181 230 6
63 21 85 68 107 75 34 178 8 204 -50 16 -37 61 -33 104 9 36 36 137 86 163 81
38 -7 59 -21 73 -47 11 -22 12 -34 5 -43 -7 -8 -7 -16 -1 -22 12 -12 -56 -157
-106 -225 -19 -26 -61 -64 -94 -85 -83 -54 -80 -68 10 -53 95 16 147 54 215
160 23 36 46 76 50 90 4 13 11 29 15 34 11 14 26 105 22 132 -4 29 -50 75 -95
97 -33 15 -94 19 -161 9z"/>
</g>
</svg>
