<?xml version="1.0" standalone="no"?>
<!DOCTYPE svg PUBLIC "-//W3C//DTD SVG 20010904//EN"
 "http://www.w3.org/TR/2001/REC-SVG-20010904/DTD/svg10.dtd">
<svg version="1.0" xmlns="http://www.w3.org/2000/svg"
 width="48.000000pt" height="48.000000pt" viewBox="0 0 48.000000 48.000000"
 preserveAspectRatio="xMidYMid meet">

<g transform="translate(0.000000,48.000000) scale(0.100000,-0.100000)"
fill="#000000" stroke="none">
<path d="M150 410 c-11 -48 -13 -50 -46 -50 -19 0 -34 -4 -34 -10 0 -5 14 -10
30 -10 17 0 30 -4 30 -10 0 -5 -7 -10 -15 -10 -10 0 -15 -10 -15 -30 0 -16 4
-30 9 -30 6 0 16 -12 23 -27 8 -17 28 -32 56 -42 23 -8 42 -18 42 -21 0 -4
-32 -13 -70 -20 -39 -7 -77 -18 -84 -24 -17 -13 -32 -76 -18 -76 5 0 13 15 16
34 5 26 12 35 31 38 19 4 25 1 25 -12 0 -19 47 -67 57 -57 3 4 -3 17 -15 30
-27 29 -28 43 -2 50 16 4 27 -4 46 -34 13 -21 28 -39 32 -39 5 0 19 18 31 41
16 27 28 38 38 35 8 -3 17 -6 19 -6 11 0 2 -26 -18 -47 -12 -13 -18 -26 -15
-30 10 -10 66 47 61 62 -4 9 3 11 21 7 19 -3 28 -12 32 -33 9 -46 27 -49 20
-4 -3 21 -11 42 -18 45 -6 4 -44 13 -85 20 -41 7 -74 16 -74 19 0 3 23 14 50
24 37 13 50 23 50 38 0 11 7 22 15 25 20 8 20 64 0 64 -8 0 -15 5 -15 10 0 6
16 10 36 10 21 0 33 4 29 10 -3 6 -21 10 -40 10 -31 0 -34 3 -40 38 -10 62
-17 66 -59 41 l-37 -22 -39 22 c-21 11 -40 21 -43 21 -3 0 -10 -22 -17 -50z
m69 3 c22 -15 26 -15 57 2 39 21 41 20 54 -24 l9 -31 -90 0 c-93 0 -95 1 -83
48 7 26 21 28 53 5z m121 -132 l0 -59 -40 -16 c-50 -20 -55 -20 -107 2 l-43
17 0 58 0 57 95 0 95 0 0 -59z m-213 -3 c-3 -8 -6 -5 -6 6 -1 11 2 17 5 13 3
-3 4 -12 1 -19z m253 13 c0 -6 -4 -13 -10 -16 -5 -3 -10 1 -10 9 0 9 5 16 10
16 6 0 10 -4 10 -9z m-120 -187 c0 -16 -16 -19 -25 -4 -8 13 4 32 16 25 5 -4
9 -13 9 -21z"/>
<path d="M200 285 c0 -8 5 -15 10 -15 6 0 10 7 10 15 0 8 -4 15 -10 15 -5 0
-10 -7 -10 -15z"/>
<path d="M270 285 c0 -8 5 -15 10 -15 6 0 10 7 10 15 0 8 -4 15 -10 15 -5 0
-10 -7 -10 -15z"/>
<path d="M214 229 c-2 -4 3 -10 12 -13 18 -7 54 1 54 12 0 9 -61 9 -66 1z"/>
</g>
</svg>
